<?xml version="1.0" standalone="no"?>
<!DOCTYPE svg PUBLIC "-//W3C//DTD SVG 20010904//EN"
 "http://www.w3.org/TR/2001/REC-SVG-20010904/DTD/svg10.dtd">
<svg version="1.0" xmlns="http://www.w3.org/2000/svg"
 width="362.000000pt" height="416.000000pt" viewBox="0 0 362.000000 416.000000"
 preserveAspectRatio="xMidYMid meet">
<metadata>
Created by potrace 1.16, written by Peter Selinger 2001-2019
</metadata>
<g transform="translate(0.000000,416.000000) scale(0.100000,-0.100000)"
fill="#000000" stroke="none">
<path d="M1571 4145 c-405 -88 -705 -391 -786 -794 -26 -126 -17 -345 19 -464
54 -181 138 -322 267 -447 138 -133 316 -227 508 -265 126 -26 345 -17 464 19
181 54 322 138 447 267 133 138 227 316 265 508 26 126 17 345 -19 464 -35
117 -73 198 -137 293 -141 209 -377 366 -631 418 -95 20 -307 20 -397 1z m382
-161 c182 -36 370 -157 489 -313 181 -239 222 -569 106 -839 -137 -317 -437
-515 -778 -514 -218 0 -408 73 -571 220 -258 232 -345 631 -207 950 84 194
226 342 413 432 173 83 350 104 548 64z"/>
<path d="M1457 1945 c-356 -58 -668 -212 -921 -455 -325 -313 -513 -713 -533
-1133 l-6 -117 1088 0 1088 0 47 -44 c64 -60 103 -66 206 -30 61 21 79 24 83
13 17 -52 71 -137 100 -156 31 -21 45 -23 164 -23 166 0 182 8 234 120 l37 78
63 -24 c72 -27 131 -31 171 -10 15 8 64 52 108 98 102 104 108 128 68 244 -18
54 -23 79 -15 82 55 18 139 72 158 101 21 31 23 46 23 164 0 166 -8 182 -120
234 l-78 37 24 63 c27 72 31 131 10 171 -8 15 -52 64 -98 108 -104 102 -128
108 -244 68 -54 -18 -79 -23 -82 -15 -18 55 -72 139 -101 159 -31 20 -46 22
-163 22 l-130 0 -67 39 c-143 84 -322 151 -508 192 -129 28 -472 36 -606 14z
m483 -156 c152 -21 345 -81 480 -149 111 -56 112 -57 93 -102 l-15 -37 -64 25
c-73 27 -132 31 -172 10 -15 -8 -64 -52 -108 -98 -102 -104 -108 -128 -68
-244 18 -54 23 -79 15 -82 -55 -18 -139 -72 -158 -101 -21 -31 -23 -46 -23
-164 0 -166 8 -182 120 -234 l78 -37 -24 -63 c-13 -35 -24 -77 -24 -93 l0 -30
-955 0 -956 0 6 38 c62 385 201 667 450 917 350 349 831 511 1325 444z m946
-339 c39 -90 44 -96 85 -113 l44 -18 95 40 95 40 53 -52 c28 -28 52 -56 52
-62 0 -6 -16 -51 -36 -100 l-35 -88 16 -44 c11 -29 26 -48 42 -54 14 -5 59
-23 100 -40 l74 -31 -3 -76 -3 -76 -95 -42 c-90 -39 -96 -44 -113 -85 l-18
-44 40 -95 40 -95 -52 -52 c-28 -29 -57 -53 -63 -53 -7 0 -51 16 -98 36 l-87
36 -45 -17 c-30 -11 -49 -26 -55 -42 -5 -14 -23 -59 -40 -100 l-31 -74 -76 3
-76 3 -42 95 c-39 90 -44 96 -85 113 l-44 18 -95 -40 -95 -40 -52 52 c-29 28
-53 57 -53 63 0 7 16 51 36 98 l36 87 -17 45 c-11 30 -26 49 -42 55 -14 5 -59
23 -100 40 l-74 31 3 76 3 76 95 42 c90 39 96 44 113 85 l18 44 -40 95 -40 95
52 53 c28 28 56 52 62 52 6 0 51 -16 100 -36 l88 -35 44 16 c29 11 48 26 54
42 5 14 23 59 40 100 l31 74 76 -3 76 -3 42 -95z"/>
<path d="M2696 1066 c-135 -50 -192 -197 -127 -324 40 -77 107 -116 201 -116
136 0 224 88 224 224 0 68 -16 113 -58 158 -53 59 -165 86 -240 58z"/>
</g>
</svg>
