<svg width="486" height="486" viewBox="0 0 486 486" fill="none" xmlns="http://www.w3.org/2000/svg">
<g clip-path="url(#clip0)">
<path d="M440.831 176.681H188.831C164.431 176.681 144.431 196.681 144.431 221.081V380.681C144.431 405.081 164.431 425.081 188.831 425.081H440.831C465.231 425.081 485.231 405.081 485.231 380.681V221.081C485.331 196.581 465.231 176.681 440.831 176.681ZM461.331 381.281C461.331 390.081 454.131 397.381 445.231 397.381H188.331C179.531 397.381 172.231 390.181 172.231 381.281V268.981H461.331V381.281ZM461.331 226.681H172.231V220.581C172.231 211.781 179.431 204.481 188.331 204.481H445.231C454.031 204.481 461.331 211.681 461.331 220.581V226.681Z" fill="black"/>
<path fill-rule="evenodd" clip-rule="evenodd" d="M119.328 383.493C109.516 384.67 99.593 379.665 94.9599 370.303L24.3169 227.556C18.4378 215.676 23.3023 201.279 35.182 195.4L259.981 84.1514C271.861 78.2724 286.257 83.1369 292.136 95.0166L318.99 149.281H341.931L310.131 84.881C299.231 62.881 272.531 53.881 250.531 64.781L24.731 176.381C2.73104 187.281 -6.26896 213.981 4.63104 235.981L75.431 379.081C84.931 398.381 106.831 407.781 126.931 402.281C123.493 396.494 120.909 390.181 119.328 383.493Z" fill="black"/>
<path d="M217.731 380.081C226.431 380.081 234.331 376.181 239.531 369.981C244.831 376.181 252.631 380.081 261.331 380.081C277.231 380.081 290.131 367.181 290.131 351.281C290.131 335.381 277.231 322.481 261.331 322.481C252.631 322.481 244.731 326.381 239.531 332.581C234.231 326.381 226.431 322.481 217.731 322.481C201.831 322.481 188.931 335.381 188.931 351.281C188.931 367.181 201.831 380.081 217.731 380.081Z" fill="black"/>
</g>
<defs>
<clipPath id="clip0">
<rect width="485.231" height="485.231" fill="white"/>
</clipPath>
</defs>
</svg>
