<svg width="344" height="392" viewBox="0 0 344 392" fill="none" xmlns="http://www.w3.org/2000/svg">
<mask id="path-1-inside-1" fill="white">
<path d="M344 392C344 346.383 325.879 302.634 293.622 270.378C261.366 238.121 217.617 220 172 220C126.383 220 82.6339 238.121 50.3776 270.378C18.1214 302.634 6.88801e-06 346.383 0 392L172 392H344Z"/>
</mask>
<path d="M344 392V407C352.284 407 359 400.284 359 392H344ZM293.622 270.378L283.016 280.984L293.622 270.378ZM172 220L172 235L172 220ZM0 392L-15 392C-15 395.978 -13.4196 399.794 -10.6066 402.607C-7.79356 405.42 -3.97825 407 -2.26494e-06 407L0 392ZM172 392L172 407H172V392ZM359 392C359 342.405 339.298 294.84 304.229 259.771L283.016 280.984C312.459 310.427 329 350.361 329 392H359ZM304.229 259.771C269.16 224.702 221.595 205 172 205L172 235C213.639 235 253.573 251.541 283.016 280.984L304.229 259.771ZM172 205C122.405 205 74.8404 224.702 39.771 259.771L60.9842 280.984C90.4275 251.541 130.361 235 172 235L172 205ZM39.771 259.771C4.70174 294.84 -15 342.404 -15 392L15 392C15 350.361 31.541 310.427 60.9842 280.984L39.771 259.771ZM-2.26494e-06 407L172 407L172 377L2.26494e-06 377L-2.26494e-06 407ZM172 407H344V377H172V407Z" fill="black" mask="url(#path-1-inside-1)"/>
<circle cx="177" cy="100" r="92.5" stroke="black" stroke-width="15"/>
</svg>
